<?xml version="1.0" encoding="UTF-8"?>
<svg xmlns="http://www.w3.org/2000/svg" viewBox="0 0 256 296">
  <g>
    <path
      d="M128,0 L256,73.8999491 L256,221.699847 L128,295.599796 L0,221.699847 L0,73.8999491 L128,0 Z"
      fill="#673AB8"
    />
    <path
      d="M65.4015371,96.4377289 C62.9376143,95.799493 62.0192786,95.3803513 61.6757566,94.1693052 C60.760673,90.8463707 67.2473969,80.9693434 73.6319447,74.4419155 C87.3611756,60.453578 108.552154,50.8994253 127.573516,50.8994253 C146.48325,50.8994253 167.965676,60.6350589 181.569212,74.4419155 C187.038961,80.087022 194.202086,90.2626266 193.28564,93.6941887 C193.164199,94.2173263 192.525774,94.6844429 191.610076,95.2075805 C188.931638,96.7295693 177.571043,96.5500969 173.158204,95.0701366 C171.614764,94.5060275 171.248893,94.0388833 169.825916,92.2649574 C163.32996,83.8499608 156.84918,78.7588542 148.057755,75.3079383 C143.703602,73.6169773 137.438497,72.5954106 132.449755,72.5954106 C126.640329,72.5954106 120.386147,73.6169773 115.925071,75.3079383 C107.029002,78.7588542 100.669145,83.8499608 94.1097115,92.4124014 C92.7657538,94.1293053 92.3622246,94.5964219 90.8187847,95.1615594 C87.6622222,96.5500969 73.0954808,97.7251338 65.4015371,96.4377289 L65.4015371,96.4377289 L65.4015371,96.4377289 Z"
      fill="#FFFFFF"
    />
    <path
      d="M127.816669,214.913358 C123.111427,214.913358 118.803594,213.899759 114.626202,212.010753 C101.367503,206.012622 94.5668565,193.22359 94.5668565,178.233863 C94.5668565,172.818798 95.5694023,167.540284 97.4888155,162.723258 C102.48607,151.163999 111.157943,141.214129 120.873456,134.427324 C122.782946,132.990377 125.846459,130.90739 127.998038,130.90739 C130.030902,130.90739 132.725786,132.697852 134.760178,134.132325 C144.56331,140.917104 153.358969,150.9525 158.295378,162.580259 C160.211394,167.432284 161.219498,172.747299 161.219498,178.233863 C161.219498,193.22359 154.418851,206.012622 141.142824,212.010753 C136.9998,213.863008 132.639994,214.913358 127.816669,214.913358 L127.816669,214.913358 L127.816669,214.913358 Z"
      fill="#FFFFFF"
    />
    <path
      d="M198.6514,148.631074 C195.707407,147.943858 194.59198,147.51644 193.969223,146.352387 C192.399093,143.146422 198.9154,133.477718 205.381456,127.077278 C219.297323,113.327507 240.744906,103.918342 260,103.918342 C279.140325,103.918342 300.879606,113.507028 314.669242,127.077278 C320.212727,132.603337 327.48351,142.574747 326.550892,145.934969 C326.427098,146.434636 325.780569,146.894795 324.852721,147.407712 C322.146564,148.90045 310.631313,148.725179 306.175267,147.273185 C304.60939,146.722019 304.240154,146.261859 302.802806,144.517618 C296.228074,136.264613 289.65761,131.253046 280.75983,127.885578 C276.358016,126.225844 270.021998,125.224761 264.982274,125.224761 C259.061782,125.224761 252.737236,126.225844 248.232661,127.885578 C239.229962,131.253046 232.778027,136.264613 226.139825,144.662145 C224.781007,146.345636 224.37351,146.805795 222.812863,147.360211 C219.603177,148.725179 204.836411,149.874725 198.6514,148.631074 L198.6514,148.631074 L198.6514,148.631074 Z"
      fill="#FFFFFF"
      transform="translate(259.916667, 126.774637) scale(-1, -1) translate(-259.916667, -126.774637)"
    />
  </g>
</svg> 