<?xml version="1.0" encoding="UTF-8"?>
<svg xmlns="http://www.w3.org/2000/svg" viewBox="0 0 800 800">
  <rect width="800" height="800" fill="#212121" rx="80" ry="80" />
  <path
    fill="#ffffff"
    d="M587.11,527.55c-7.1,0-13.72-4.3-16.5-11.23L493.94,303.58a17.4,17.4,0,0,1,16.34-23.56h30.11a17.39,17.39,0,0,1,16.5,11.23l76.67,212.74a17.39,17.39,0,0,1-16.35,23.56H587.11Z"
  />
  <path
    fill="#ffffff"
    d="M337.56,516.32h30.11a17.39,17.39,0,0,0,16.5-11.23l76.68-212.74a17.4,17.4,0,0,0-16.35-23.56H414.39a17.38,17.38,0,0,0-16.51,11.23l-76.67,212.74a17.4,17.4,0,0,0,16.35,23.56"
  />
  <path
    fill="#ffffff"
    d="M219.19,516.32h30.11a17.39,17.39,0,0,0,16.51-11.23l76.67-212.74a17.4,17.4,0,0,0-16.35-23.56H296a17.39,17.39,0,0,0-16.5,11.23L202.85,492.76a17.4,17.4,0,0,0,16.34,23.56"
  />
</svg> 