<!-- Flux Capacitor – hyper‑skeuomorphic (lighter glass + central yellow highlight) -->
<svg xmlns="http://www.w3.org/2000/svg" viewBox="0 0 96 104" width="1em" height="1em" stroke-linecap="round" stroke-linejoin="round">
  <defs>
    <!-- Frame & Panel -->
    <linearGradient id="frameGrad" x1="0" y1="0" x2="0" y2="1">
      <stop offset="0%" stop-color="#DCDDDE" />
      <stop offset="100%" stop-color="#9FA3A6" />
    </linearGradient>

    <!-- Tinted glass (lighter, smoky) -->
    <radialGradient id="glassGrad" cx="0.5" cy="0.35" r="0.8">
      <stop offset="0%"  stop-color="#2F2F32"/>
      <stop offset="60%" stop-color="#2B2B2E"/>
      <stop offset="100%" stop-color="#3F3F43"/>
    </radialGradient>

    <!-- Reflected highlight on glass -->
    <linearGradient id="glassHighlight" x1="0" y1="0" x2="1" y2="1">
      <stop offset="0%" stop-color="rgba(255,255,255,0.18)" />
      <stop offset="50%" stop-color="rgba(255,255,255,0)" />
    </linearGradient>

    <!-- Discs & screws -->
    <radialGradient id="plateGrad" cx="0.35" cy="0.35" r="0.75">
      <stop offset="0%"  stop-color="#F4F4F4"/>
      <stop offset="60%" stop-color="#C7C7C7"/>
      <stop offset="100%" stop-color="#8A8A8A"/>
    </radialGradient>
    <radialGradient id="screwGrad" cx="0.4" cy="0.4" r="0.8">
      <stop offset="0%" stop-color="#D0D0D0" />
      <stop offset="100%" stop-color="#6E6E6E" />
    </radialGradient>

    <!-- Rubber couplings -->
    <linearGradient id="rubberGrad" x1="0" y1="0" x2="1" y2="1">
      <stop offset="0%" stop-color="#D34E4E" />
      <stop offset="100%" stop-color="#651919" />
    </linearGradient>

    <!-- Wiring arms -->
    <linearGradient id="armGrad" x1="0" y1="0" x2="1" y2="1">
      <stop offset="0%" stop-color="#FDFDF9" />
      <stop offset="60%" stop-color="#C8C8BE" />
      <stop offset="100%" stop-color="#9A9A8B" />
    </linearGradient>

    <!-- Glow at hub -->
    <radialGradient id="glow" cx="0.5" cy="0.5" r="0.5">
      <stop offset="0%" stop-color="#FFFA96" stop-opacity="0.9" />
      <stop offset="60%" stop-color="#FFDF00" stop-opacity="0.2" />
      <stop offset="100%" stop-color="#FFDF00" stop-opacity="0" />
    </radialGradient>

    <!-- Shadow -->
    <filter id="shadow" x="-20%" y="-20%" width="140%" height="140%">
      <feDropShadow dx="0" dy="1" stdDeviation="1.5" flood-color="rgba(0,0,0,0.55)" />
    </filter>
  </defs>

  <!-- Outer aluminium frame -->
  <rect x="2" y="2" width="92" height="96" rx="8" fill="url(#frameGrad)" stroke="#5A5A5A" stroke-width="2" />

  <!-- Panel screws -->
  <g fill="url(#screwGrad)">
    <circle cx="12" cy="12" r="2.5" />
    <circle cx="84" cy="12" r="2.5" />
    <circle cx="12" cy="86" r="2.5" />
    <circle cx="84" cy="86" r="2.5" />
  </g>

  <!-- Glass viewport -->
  <rect x="12" y="12" width="72" height="72" rx="6" fill="url(#glassGrad)" stroke="#2E2E2E" stroke-width="1.5" />
  <!-- Soft highlight sweep -->
  <rect x="12" y="12" width="72" height="72" rx="6" fill="url(#glassHighlight)" />

  <!-- Discs & couplings -->
  <!-- Top disc -->
  <circle cx="48" cy="20" r="9" fill="url(#plateGrad)" filter="url(#shadow)" />
  <circle cx="48" cy="20" r="4.5" fill="url(#rubberGrad)" />
  <!-- Left disc -->
  <circle cx="22" cy="64" r="9" fill="url(#plateGrad)" filter="url(#shadow)" />
  <circle cx="22" cy="64" r="4.5" fill="url(#rubberGrad)" />
  <!-- Right disc -->
  <circle cx="74" cy="64" r="9" fill="url(#plateGrad)" filter="url(#shadow)" />
  <circle cx="74" cy="64" r="4.5" fill="url(#rubberGrad)" />

  <!-- Wiring arms -->
  <g stroke="url(#armGrad)" stroke-width="6" filter="url(#shadow)">
    <path d="M48 24 V48" />          <!-- center arm down -->
    <path d="M48 48 L26 62" />       <!-- left arm -->
    <path d="M48 48 L70 62" />       <!-- right arm -->
  </g>

  <!-- Central yellow highlight line -->
  <path d="M48 24 V48" stroke="#FFE86C" stroke-width="2" />

  <!-- Glow at hub joint -->
  <circle cx="48" cy="48" r="9" fill="url(#glow)" />
  <circle cx="48" cy="48" r="3" fill="#847C6C" stroke="#262626" stroke-width="1" />

  <!-- Bottom control bar -->
  <rect x="10" y="88" width="24" height="12" rx="2" fill="#111" stroke="#555" stroke-width="1" />
  <text x="22" y="97" font-family="'Courier New', monospace" font-size="10" text-anchor="middle" fill="#FFB400">88</text>

  <rect x="38" y="88" width="12" height="12" rx="2" fill="#272727" stroke="#555" stroke-width="1" />
  <g fill="#FFDF00" transform="translate(44 94) scale(0.4)">
    <circle r="3.5" />
    <path d="M0 -3.5 V-7" stroke="#FFDF00" stroke-width="2"/>
    <path d="M3.5 0 H7" stroke="#FFDF00" stroke-width="2"/>
    <path d="M0 3.5 V7" stroke="#FFDF00" stroke-width="2"/>
    <path d="M-3.5 0 H-7" stroke="#FFDF00" stroke-width="2"/>
  </g>

  <rect x="56" y="88" width="30" height="12" rx="2" fill="#111" stroke="#555" stroke-width="1" />
  <path d="M60 95 H82" stroke="#67C1FF" stroke-width="2" />
  <circle cx="60" cy="95" r="1.5" fill="#67C1FF" />

  <!-- Bottom wiring (colorful cables) -->
  <path d="M22 84 h6 c3 0 3 4 6 4 h34" stroke="#FF3C3C" stroke-width="2" fill="none" />
  <path d="M22 82 h6 c3 0 3 4 6 4 h34" stroke="#FDBB2A" stroke-width="2" fill="none" />
  <path d="M22 80 h6 c3 0 3 4 6 4 h34" stroke="#5BD6FF" stroke-width="2" fill="none" />
</svg>
