<?xml version="1.0" encoding="UTF-8" standalone="no"?>
<svg width="512" height="512" viewBox="0 0 512 512" fill="none" xmlns="http://www.w3.org/2000/svg">
  <!-- Define gradients -->
  <defs>
    <linearGradient id="tealGradient" x1="0%" y1="0%" x2="100%" y2="100%">
      <stop offset="0%" stop-color="#05866f" />
      <stop offset="100%" stop-color="#0cceab" />
    </linearGradient>
    <linearGradient id="aquaGradient" x1="0%" y1="0%" x2="100%" y2="100%">
      <stop offset="0%" stop-color="#0059b3" />
      <stop offset="100%" stop-color="#00b8d9" />
    </linearGradient>
    <filter id="glow" x="-25%" y="-25%" width="150%" height="150%">
      <feGaussianBlur stdDeviation="10" result="blur" />
      <feComposite in="SourceGraphic" in2="blur" operator="over" />
    </filter>
    <filter id="outerGlow" x="-30%" y="-30%" width="160%" height="160%">
      <feGaussianBlur stdDeviation="8" result="blur" />
      <feFlood flood-color="#00c3c3" flood-opacity="0.8" result="color"/>
      <feComposite in="color" in2="blur" operator="in" result="glow"/>
      <feComposite in="glow" in2="SourceGraphic" operator="out"/>
    </filter>
    <radialGradient id="backgroundGradient" cx="50%" cy="50%" r="70%" fx="50%" fy="50%">
      <stop offset="0%" stop-color="#f5ffff" />
      <stop offset="100%" stop-color="#ccf7ff" />
    </radialGradient>
  </defs>
  
  <!-- Light background with subtle gradient -->
  <rect width="512" height="512" rx="100" fill="url(#backgroundGradient)" />
  
  <!-- Subtle background shadow for contrast -->
  <circle cx="256" cy="256" r="210" fill="#e8e8e8" opacity="0.2" />
  
  <!-- Stylized left curly brace - teal accent - BIGGER -->
  <path d="M170 100C135 100 110 125 110 160V200C110 215 95 235 75 235C95 235 110 255 110 270V352C110 387 135 412 170 412" 
        stroke="url(#tealGradient)" 
        stroke-width="52" 
        stroke-linecap="round"
        filter="url(#glow)" />
  
  <!-- Stylized right curly brace - aqua accent - BIGGER -->
  <path d="M342 100C377 100 402 125 402 160V200C402 215 417 235 437 235C417 235 402 255 402 270V352C402 387 377 412 342 412" 
        stroke="url(#aquaGradient)" 
        stroke-width="52" 
        stroke-linecap="round"
        filter="url(#glow)" />
        
  <!-- Larger fun decorative dots with glow -->
  <circle cx="120" cy="120" r="16" fill="#0099b3" filter="url(#outerGlow)" />
  <circle cx="392" cy="120" r="16" fill="#07966e" filter="url(#outerGlow)" />
  <circle cx="120" cy="392" r="16" fill="#0099b3" filter="url(#outerGlow)" />
  <circle cx="392" cy="392" r="16" fill="#07966e" filter="url(#outerGlow)" />
  
  <!-- Thin outline around braces for better contrast -->
  <path d="M170 100C135 100 110 125 110 160V200C110 215 95 235 75 235C95 235 110 255 110 270V352C110 387 135 412 170 412" 
        stroke="#ffffff" 
        stroke-width="56" 
        stroke-linecap="round"
        opacity="0.15" />
  
  <path d="M342 100C377 100 402 125 402 160V200C402 215 417 235 437 235C417 235 402 255 402 270V352C402 387 377 412 342 412" 
        stroke="#ffffff" 
        stroke-width="56" 
        stroke-linecap="round"
        opacity="0.15" />
</svg> 