<!-- Flux Capacitor – cozy‑brutalist variant -->
<svg xmlns="http://www.w3.org/2000/svg" viewBox="0 0 96 104" width="1em" height="1em" stroke-linecap="round" stroke-linejoin="round">
  <defs>
    <!-- Brutalist concrete frame texture -->
    <linearGradient id="concreteGrad" x1="0" y1="0" x2="0" y2="1">
      <stop offset="0%" stop-color="#C7C7C7" />
      <stop offset="100%" stop-color="#9A9A9A" />
    </linearGradient>
    <filter id="grain" x="-20%" y="-20%" width="140%" height="140%">
      <feTurbulence type="fractalNoise" baseFrequency="0.8" numOctaves="3" result="noise" />
      <feColorMatrix type="saturate" values="0" />
      <feBlend in="SourceGraphic" in2="noise" mode="multiply" />
    </filter>

    <!-- Smoked glass slightly warm -->
    <linearGradient id="glass" x1="0" y1="0" x2="0" y2="1">
      <stop offset="0%" stop-color="#3B3B3B" />
      <stop offset="100%" stop-color="#262626" />
    </linearGradient>

    <!-- Plate discs -->
    <linearGradient id="plate" x1="0" y1="0" x2="1" y2="1">
      <stop offset="0%" stop-color="#E7E7E7" />
      <stop offset="100%" stop-color="#A9A9A9" />
    </linearGradient>

    <!-- Warm accent -->
    <radialGradient id="warmGlow" cx="0.5" cy="0.5" r="0.5">
      <stop offset="0%" stop-color="#F4C47B" />
      <stop offset="100%" stop-color="#F4C47B" stop-opacity="0" />
    </radialGradient>

    <!-- Shadow -->
    <filter id="shadow" x="-15%" y="-15%" width="130%" height="130%">
      <feDropShadow dx="0" dy="1" stdDeviation="1.2" flood-color="rgba(0,0,0,0.45)" />
    </filter>
  </defs>

  <!-- Concrete frame -->
  <rect x="3" y="3" width="90" height="94" rx="4" fill="url(#concreteGrad)" filter="url(#grain)" stroke="#6E6E6E" stroke-width="2.5" />

  <!-- Interior smoked glass panel -->
  <rect x="12" y="12" width="72" height="72" rx="3" fill="url(#glass)" stroke="#1C1C1C" stroke-width="1.2" />

  <!-- Discs (raw aluminium plates) -->
  <circle cx="48" cy="20" r="9" fill="url(#plate)" filter="url(#shadow)" />
  <circle cx="22" cy="64" r="9" fill="url(#plate)" filter="url(#shadow)" />
  <circle cx="74" cy="64" r="9" fill="url(#plate)" filter="url(#shadow)" />

  <!-- Wiring arms (terracotta accent) -->
  <g stroke="#CC7351" stroke-width="6" filter="url(#shadow)">
    <path d="M48 24 V48" />
    <path d="M48 48 L26 62" />
    <path d="M48 48 L70 62" />
  </g>

  <!-- Central warm highlight -->
  <path d="M48 24 V48" stroke="#F4C47B" stroke-width="3" />
  <circle cx="48" cy="48" r="10" fill="url(#warmGlow)" />
  <circle cx="48" cy="48" r="3" fill="#7A7465" />

  <!-- Bottom block controls (simple brutalist blocks) -->
  <rect x="10" y="88" width="25" height="11" fill="#444" />
  <rect x="38" y="88" width="12" height="11" fill="#444" />
  <rect x="56" y="88" width="30" height="11" fill="#444" />

  <!-- Subdued cable lines -->
  <path d="M22 84 h44" stroke="#7C7C7C" stroke-width="1.5" />
  <path d="M22 86 h44" stroke="#6A6A6A" stroke-width="1.5" />
</svg>
